<?xml version="1.0" encoding="iso-8859-1"?>
<!-- Generator: Adobe Illustrator 18.0.0, SVG Export Plug-In . SVG Version: 6.00 Build 0)  -->
<!DOCTYPE svg PUBLIC "-//W3C//DTD SVG 1.1//EN" "http://www.w3.org/Graphics/SVG/1.1/DTD/svg11.dtd">
<svg version="1.1" id="Capa_1" xmlns="http://www.w3.org/2000/svg" xmlns:xlink="http://www.w3.org/1999/xlink" x="0px" y="0px"
	 viewBox="0 0 209.281 209.281" style="enable-background:new 0 0 209.281 209.281;" xml:space="preserve">
<g>
	<path d="M104.64,0.001C46.941,0.001,0,46.941,0,104.641c0,57.699,46.941,104.64,104.64,104.64
		c57.7,0,104.641-46.941,104.641-104.64C209.281,46.941,162.339,0.001,104.64,0.001z M104.64,194.28
		c-49.427,0-89.64-40.212-89.64-89.64c0-49.428,40.212-89.64,89.64-89.64c49.428,0,89.641,40.212,89.641,89.64
		C194.281,154.068,154.068,194.28,104.64,194.28z"/>
	<path d="M167.684,137.157c-7.547-2.069-15.761-3.724-24.456-4.956c0.847-8.866,1.293-18.116,1.293-27.56
		c0-9.452-0.446-18.699-1.292-27.561c8.695-1.232,16.908-2.887,24.453-4.956c3.995-1.096,6.345-5.222,5.25-9.217
		c-1.097-3.994-5.227-6.347-9.217-5.249c-6.782,1.86-14.326,3.37-22.349,4.512c-1.679-10.705-3.999-20.577-6.912-29.176
		c-1.329-3.923-5.586-6.025-9.51-4.697c-3.923,1.329-6.026,5.586-4.697,9.51c2.59,7.646,4.674,16.435,6.206,26.007
		c-7.1,0.567-14.42,0.867-21.817,0.867c-7.393,0-14.708-0.299-21.804-0.866c1.498-9.356,3.519-17.97,6.026-25.491
		c1.31-3.93-0.814-8.177-4.743-9.487c-3.93-1.308-8.177,0.814-9.487,4.743c-2.819,8.457-5.074,18.125-6.715,28.591
		c-8.023-1.142-15.568-2.652-22.35-4.513c-3.994-1.097-8.121,1.255-9.217,5.249c-1.096,3.995,1.254,8.121,5.249,9.217
		c7.546,2.07,15.761,3.725,24.458,4.957c-0.846,8.866-1.293,18.115-1.293,27.56c0,9.451,0.446,18.698,1.292,27.56
		c-8.696,1.232-16.911,2.887-24.457,4.956c-3.995,1.096-6.345,5.222-5.249,9.217c1.095,3.994,5.219,6.346,9.217,5.249
		c6.783-1.86,14.329-3.371,22.352-4.513c1.679,10.705,3.998,20.576,6.911,29.176c1.059,3.126,3.976,5.096,7.103,5.096
		c0.798,0,1.609-0.128,2.407-0.398c3.923-1.329,6.026-5.586,4.698-9.509c-2.589-7.646-4.673-16.436-6.206-26.007
		c7.098-0.567,14.417-0.867,21.812-0.867c7.394,0,14.711,0.299,21.808,0.867c-1.498,9.354-3.52,17.968-6.026,25.489
		c-1.31,3.93,0.814,8.177,4.743,9.487c0.787,0.262,1.587,0.387,2.373,0.387c3.14,0,6.066-1.988,7.114-5.13
		c2.819-8.458,5.074-18.125,6.715-28.589c8.022,1.142,15.567,2.652,22.351,4.512c0.664,0.182,1.331,0.269,1.987,0.269
		c3.295-0.001,6.315-2.188,7.229-5.519C174.029,142.378,171.678,138.252,167.684,137.157z M104.64,129.601
		c-8.103,0-16.027,0.326-23.684,0.95c-0.782-8.305-1.195-16.998-1.195-25.91c0-8.906,0.413-17.601,1.196-25.911
		c7.656,0.625,15.578,0.95,23.68,0.95c8.105,0,16.031-0.326,23.69-0.95c0.781,8.305,1.194,16.999,1.194,25.911
		c0,8.905-0.413,17.6-1.196,25.91C120.667,129.926,112.743,129.601,104.64,129.601z"/>
</g>
<g>
</g>
<g>
</g>
<g>
</g>
<g>
</g>
<g>
</g>
<g>
</g>
<g>
</g>
<g>
</g>
<g>
</g>
<g>
</g>
<g>
</g>
<g>
</g>
<g>
</g>
<g>
</g>
<g>
</g>
</svg>
