<svg xmlns="http://www.w3.org/2000/svg" xmlns:xlink="http://www.w3.org/1999/xlink" width="500" height="500" viewBox="0 0 500 500">
  <defs>
    <filter id="Path_53" x="41.498" y="80.06" width="418.787" height="341.58" filterUnits="userSpaceOnUse">
      <feOffset dx="1" dy="1" input="SourceAlpha"/>
      <feGaussianBlur stdDeviation="5" result="blur"/>
      <feFlood flood-opacity="0.161"/>
      <feComposite operator="in" in2="blur"/>
      <feComposite in="SourceGraphic"/>
    </filter>
    <clipPath id="clip-path">
      <path id="path176" d="M294.945-292.235l27.2,14.343,7.391-3.9-27.2-14.341-7.393,3.9" transform="translate(-294.945 296.131)"/>
    </clipPath>
    <linearGradient id="linear-gradient" x1="-13.059" y1="22.712" x2="-13.053" y2="22.712" gradientUnits="objectBoundingBox">
      <stop offset="0" stop-color="#f9e146"/>
      <stop offset="1" stop-color="#f2596c"/>
    </linearGradient>
    <clipPath id="clip-path-2">
      <path id="path192" d="M323.037-276.014l27.2,14.343,7.393-3.9-27.2-14.343-7.4,3.9" transform="translate(-323.037 279.913)"/>
    </clipPath>
    <linearGradient id="linear-gradient-2" x1="-14.302" y1="21.466" x2="-14.296" y2="21.466" xlink:href="#linear-gradient"/>
    <clipPath id="clip-path-3">
      <path id="path208" d="M351.132-259.794l27.2,14.343,7.393-3.9-27.2-14.343-7.391,3.9" transform="translate(-351.132 263.693)"/>
    </clipPath>
    <linearGradient id="linear-gradient-3" x1="-15.548" y1="20.222" x2="-15.542" y2="20.222" xlink:href="#linear-gradient"/>
    <clipPath id="clip-path-4">
      <path id="path224" d="M379.226-243.575l27.2,14.343,7.393-3.9-27.2-14.341-7.391,3.9" transform="translate(-379.226 247.471)"/>
    </clipPath>
    <linearGradient id="linear-gradient-4" x1="-16.792" y1="18.98" x2="-16.786" y2="18.98" xlink:href="#linear-gradient"/>
    <clipPath id="clip-path-5">
      <path id="path240" d="M407.318-227.355l27.2,14.343,7.391-3.9-27.2-14.343-7.393,3.9" transform="translate(-407.318 231.253)"/>
    </clipPath>
    <linearGradient id="linear-gradient-5" x1="-18.035" y1="17.734" x2="-18.029" y2="17.734" xlink:href="#linear-gradient"/>
    <clipPath id="clip-path-6">
      <path id="path256" d="M435.412-211.135l27.2,14.341,7.393-3.9-27.2-14.343-7.393,3.9" transform="translate(-435.412 215.033)"/>
    </clipPath>
    <linearGradient id="linear-gradient-6" x1="-19.279" y1="16.492" x2="-19.273" y2="16.492" xlink:href="#linear-gradient"/>
    <clipPath id="clip-Artboard_3">
      <rect width="500" height="500"/>
    </clipPath>
  </defs>
  <g id="Artboard_3" data-name="Artboard – 3" clip-path="url(#clip-Artboard_3)">
    <g transform="matrix(1, 0, 0, 1, 0, 0)" filter="url(#Path_53)">
      <path id="Path_53-2" data-name="Path 53" d="M228.426,0c52.241,0,60.145,66.939,96.134,91.575,41.755,28.582,107.724,18.1,107.724,64.215,0,30.458-32.9,37.322-52.745,61.418-33.773,41-73.151,88.116-138.063,93.813-4.148.364-8.541.559-13.051.559-58.32,0-32.988-64.327-65.02-106.3C133.459,166.031,44.1,150.59,44.1,109.118,44.1,54.4,35.24,44.7,85.481,30.607,114,22.611,187.444,0,228.426,0Z" transform="translate(12 94.06)" fill="rgba(0,198,255,0.82)"/>
    </g>
    <g id="g12" transform="translate(-187.999 504.892)">
      <g id="g172" transform="translate(311.636 -254.211)">
        <g id="g174" clip-path="url(#clip-path)">
          <path id="path186" d="M294.945-292.235l27.2,14.343,7.391-3.9-27.2-14.341-7.393,3.9" transform="translate(-294.945 296.131)" fill="url(#linear-gradient)"/>
        </g>
      </g>
      <g id="g188" transform="translate(354.667 -231.523)">
        <g id="g190" clip-path="url(#clip-path-2)">
          <path id="path202" d="M323.037-276.014l27.2,14.343,7.393-3.9-27.2-14.343-7.4,3.9" transform="translate(-323.037 279.913)" fill="url(#linear-gradient-2)"/>
        </g>
      </g>
      <g id="g204" transform="translate(397.705 -208.833)">
        <g id="g206" clip-path="url(#clip-path-3)">
          <path id="path218" d="M351.132-259.794l27.2,14.343,7.393-3.9-27.2-14.343-7.391,3.9" transform="translate(-351.132 263.693)" fill="url(#linear-gradient-3)"/>
        </g>
      </g>
      <g id="g220" transform="translate(440.738 -186.141)">
        <g id="g222" clip-path="url(#clip-path-4)">
          <path id="path234" d="M379.226-243.575l27.2,14.343,7.393-3.9-27.2-14.341-7.391,3.9" transform="translate(-379.226 247.471)" fill="url(#linear-gradient-4)"/>
        </g>
      </g>
      <g id="g236" transform="translate(483.768 -163.453)">
        <g id="g238" clip-path="url(#clip-path-5)">
          <path id="path250" d="M407.318-227.355l27.2,14.343,7.391-3.9-27.2-14.343-7.393,3.9" transform="translate(-407.318 231.253)" fill="url(#linear-gradient-5)"/>
        </g>
      </g>
      <g id="g252" transform="translate(526.804 -140.763)">
        <g id="g254" clip-path="url(#clip-path-6)">
          <path id="path266" d="M435.412-211.135l27.2,14.341,7.393-3.9-27.2-14.343-7.393,3.9" transform="translate(-435.412 215.033)" fill="url(#linear-gradient-6)"/>
        </g>
      </g>
      <path id="path326" d="M336.465-393.706v15.932l-28.783,14.3v-15.934l28.783-14.3" transform="translate(23.465 2.999)" fill="#e9f1fb"/>
      <path id="path372" d="M325.189-352.206l-7.275-3.907,7.275-3.617v7.524" transform="translate(28.907 16.551)" fill="#bbcae3"/>
      <path id="path374" d="M423.139-350.232v21.793l-40.315,20.032V-330.2l40.315-20.032" transform="translate(63.426 20.34)" fill="#e9f1fb"/>
      <path id="path376" d="M412.329-322.9v21.793l-84.988-45.632V-368.53L412.329-322.9" transform="translate(33.92 13.041)" fill="#d7e3f5"/>
      <path id="path378" d="M412.334-317.183l-84.992-45.634,40.315-20.038L452.65-337.22l-40.317,20.038" transform="translate(33.92 7.327)" fill="#e7f2fb"/>
      <path id="path390" d="M466.731-283.736V-257l-64.982-34.267V-318l64.982,34.263" transform="translate(73.489 33.197)" fill="#d7e3f5"/>
      <path id="path496" d="M465.069-224.366l-38.438-20.286,11.525-6.077,31.5,16.613a35.611,35.611,0,0,0,2.469,6.026l-7.061,3.723" transform="translate(86.722 60.031)" fill="#9d99b5"/>
      <path id="path498" d="M446.5-200.878v-14.058l-24.776-27.489,7.512-3.96L467.677-226.1,446.5-214.936v14.058" transform="translate(84.114 61.764)" fill="#544853"/>
      <path id="path500" d="M295.023-265.315l12.156-8.567,43.133,27.7L454.006-181.49l13.5-7.41L503.5-168.037l-16.658-42.23-191.3-86.742-.519,31.693" transform="translate(16.734 41.57)" fill="#0b0e16"/>
      <path id="path502" d="M449.93-196.227c0-10.74-8.308-23.824-18.553-29.227-5.108-2.693-9.736-2.969-13.09-1.238h0l0,0-.078.041-11.719,6.183v8.289L432.8-179.187l10.99-5.831a8.882,8.882,0,0,0,1.475-.783l.006,0c2.9-1.9,4.655-5.484,4.655-10.424" transform="translate(76.01 69.184)" fill="#1a1c26"/>
      <path id="path504" d="M345.4-256.658c0-10.738-8.306-23.824-18.555-29.227-5.418-2.857-10.294-2.994-13.686-.9l-11.6,6.131,7.855,11.7a39.484,39.484,0,0,0,12.569,18.717l6.911,10.29,10.191-5.426a9.048,9.048,0,0,0,1.844-.983c2.788-1.932,4.471-5.465,4.471-10.3" transform="translate(20.209 45.079)" fill="#1a1c26"/>
      <path id="path506" d="M577-194.956v29.931L563-172.4a47.509,47.509,0,0,0-21.974-25.9c-13.21-6.965-15.022,1.143-22.452,13.23a26.059,26.059,0,0,0-1.454,3.374L405.86-240.368q.037-1.953.037-4.124c0-13.841-10.71-38.2-23.92-45.167s-23.92-1.388-23.92,12.454q0,2.194.084,4.185l-35.476-18.706v-107.6l216.781,114.3,12.781,62.584L577-194.956" transform="translate(31.432 0.755)" fill="#ddd8ce"/>
      <path id="path508" d="M491.048-221.238c0,10.74-8.306,15.065-18.553,9.662S453.94-230.064,453.94-240.8s8.308-15.063,18.555-9.66,18.553,18.488,18.553,29.226" transform="translate(101.244 59.208)" fill="#232530"/>
      <path id="path510" d="M386.381-279.531c0,10.738-8.306,15.063-18.555,9.66s-18.555-25.978-18.555-36.716,8.308-15.063,18.555-9.662,18.555,25.978,18.555,36.718" transform="translate(45.582 32.967)" fill="#232530"/>
      <path id="path512" d="M378.753-284.412c0,7.461-5.772,10.466-12.893,6.713s-12.89-20.336-12.89-27.8,5.772-10.467,12.89-6.713,12.893,20.334,12.893,27.8" transform="translate(47.549 34.862)" fill="#434450"/>
      <path id="path514" d="M377.12-285.457c0,6.761-5.231,9.484-11.68,6.082s-11.68-19.127-11.68-25.889,5.231-9.483,11.68-6.082,11.68,19.129,11.68,25.889" transform="translate(47.969 35.267)" fill="#b8bfd0"/>
      <path id="path516" d="M375.54-286.467c0,6.081-4.706,8.529-10.508,5.471s-10.506-17.96-10.506-24.04,4.7-8.531,10.506-5.472,10.508,17.96,10.508,24.042" transform="translate(48.377 35.659)" fill="#99a1bc"/>
      <path id="path518" d="M370.068-297.457c0,3.73-2.886,12.722-6.446,10.846s-6.446-13.912-6.446-17.643,2.886-5.234,6.446-3.357,6.446,6.424,6.446,10.154" transform="translate(49.786 37.018)" fill="#c7d3e2"/>
      <path id="path520" d="M483.421-226.117c0,7.461-5.772,10.466-12.892,6.711s-12.892-12.846-12.892-20.306,5.772-10.466,12.892-6.711,12.892,12.844,12.892,20.306" transform="translate(103.21 61.103)" fill="#434450"/>
      <path id="path522" d="M481.79-227.162c0,6.759-5.231,9.483-11.68,6.082s-11.682-11.639-11.682-18.4,5.231-9.483,11.682-6.08,11.68,11.639,11.68,18.4" transform="translate(103.63 61.508)" fill="#a9b0c6"/>
      <path id="path524" d="M478.121-229.509c0,5.185-4.011,7.272-8.958,4.665s-8.958-8.925-8.958-14.11,4.009-7.272,8.958-4.665,8.958,8.927,8.958,14.11" transform="translate(104.576 62.419)" fill="#c7d3e2"/>
      <path id="path526" d="M472.638-233.016c0,2.828-2.189,3.967-4.887,2.544a9.7,9.7,0,0,1-4.887-7.7c0-2.828,2.187-3.967,4.887-2.544a9.706,9.706,0,0,1,4.887,7.7" transform="translate(105.989 63.781)" fill="#dbe3eb"/>
      <path id="path528" d="M469.63-234.94c0,1.535-1.189,2.154-2.655,1.382a5.271,5.271,0,0,1-2.655-4.182c0-1.537,1.187-2.156,2.655-1.382a5.27,5.27,0,0,1,2.655,4.182" transform="translate(106.764 64.528)" fill="#b8bfd0"/>
      <path id="path530" d="M525.679-217.51l-78.168,31.3L434.439-190.3l-8.17-4.3,83.344-43.944,12.814,6.758,3.251,4.37v9.913" transform="translate(86.529 64.888)" fill="#5b535a"/>
      <path id="path532" d="M538-288.628,324.45-401.223l-1.787,2.648,216.781,114.3L538-288.628" transform="translate(31.432 0)" fill="#f0ede7"/>
      <path id="path534" d="M479.648-265.4,324.827-347.035v-4.1L479.648-269.5v4.1" transform="translate(32.583 19.98)" fill="#8a8b93"/>
      <path id="path536" d="M427.262-231.46v-98.771L471.9-306.7v65.744l-14.681,25.288L427.262-231.46" transform="translate(87.057 28.318)" fill="#c2bcae"/>
      <path id="path538" d="M468.308-307.036l-10.059-5.3v52l14.9,7.858,4.213-6.265-9.056-48.288" transform="translate(103.536 35.454)" fill="#232530"/>
      <path id="path540" d="M459.126-261.641V-310.83l7.686,4.051,8.66,46.508-3.6,5.349-12.747-6.72" transform="translate(104.002 36.057)" fill="#6c6aa8"/>
      <path id="path542" d="M462.225-240.364,425.9-259.515v2.889l36.326,19.152v-2.889" transform="translate(86.332 56.526)" fill="#8a7971"/>
      <path id="path544" d="M327.081-322.561l-12.724-6.709v2.891l12.724,6.707v-2.889" transform="translate(27.015 28.701)" fill="#8a7971"/>
      <path id="path546" d="M487.936-243.054l-5.327-2.811v-5.582l5.327,2.809v5.584" transform="translate(116.49 59.744)" fill="#434450"/>
      <path id="path548" d="M487.328-243.972,482.9-246.3v-4.635l4.424,2.331v4.635" transform="translate(116.647 59.947)" fill="#f68a2f"/>
      <path id="path550" d="M332.209-336.564c0,1.725-1.336,2.421-2.98,1.552a5.914,5.914,0,0,1-2.982-4.695c0-1.727,1.334-2.421,2.982-1.552a5.922,5.922,0,0,1,2.98,4.695" transform="translate(33.338 23.77)" fill="#434450"/>
      <path id="path552" d="M331.373-337.1c0,1.365-1.058,1.917-2.359,1.229a4.692,4.692,0,0,1-2.363-3.719c0-1.367,1.058-1.917,2.363-1.229a4.691,4.691,0,0,1,2.359,3.719" transform="translate(33.553 23.977)" fill="#f14638"/>
      <path id="path554" d="M330.7-329.946c0,1.173-.909,1.645-2.026,1.054a4.021,4.021,0,0,1-2.026-3.191c0-1.171.907-1.645,2.026-1.054a4.026,4.026,0,0,1,2.026,3.191" transform="translate(33.553 27.057)" fill="#f7ece4"/>
      <path id="path556" d="M330.288-330.211c0,.994-.77,1.4-1.718.9a3.42,3.42,0,0,1-1.718-2.708c0-.994.77-1.4,1.718-.893a3.414,3.414,0,0,1,1.718,2.706" transform="translate(33.66 27.16)" fill="#f68a2f"/>
      <path id="path558" d="M384.647-291.375c0,1.173-.909,1.645-2.026,1.056a4.027,4.027,0,0,1-2.026-3.191c0-1.173.907-9.136,2.026-8.546s2.026,9.509,2.026,10.682" transform="translate(62.24 39.544)" fill="#f7ece4"/>
      <path id="path560" d="M384.232-293.713c0,.994-.77,1.4-1.718.9a3.417,3.417,0,0,1-1.718-2.706c0-1,.77-1.4,1.718-.9a3.414,3.414,0,0,1,1.718,2.706" transform="translate(62.347 41.719)" fill="#f68a2f"/>
      <path id="path562" d="M424.3-275.91c0,1.173-.9,1.645-2.024,1.054a4.015,4.015,0,0,1-2.026-3.189c0-1.173.907-1.645,2.026-1.056a4.024,4.024,0,0,1,2.024,3.191" transform="translate(83.326 48.612)" fill="#f7ece4"/>
      <path id="path564" d="M423.883-276.175c0,.994-.768,1.4-1.718.9a3.412,3.412,0,0,1-1.72-2.706c0-1,.77-1.4,1.72-.9a3.41,3.41,0,0,1,1.718,2.706" transform="translate(83.432 48.715)" fill="#f68a2f"/>
      <path id="path566" d="M333.581-389.334l-6.93-3.654V-395.8l6.93,3.654v2.811" transform="translate(33.553 2.164)" fill="#c2bcae"/>
      <path id="path568" d="M332.756-390.314l-5.7-3.008V-395.4l5.7,3.007v2.08" transform="translate(33.766 2.323)" fill="#f68a2f"/>
      <path id="path570" d="M389.971-356.778l-6.932-3.654v-2.811l6.932,3.654v2.811" transform="translate(63.54 15.15)" fill="#c2bcae"/>
      <path id="path572" d="M389.143-357.76l-5.7-3v-2.08l5.7,3.007v2.078" transform="translate(63.753 15.309)" fill="#f68a2f"/>
      <path id="path574" d="M461.069-315.729l-6.93-3.654v-2.811l6.93,3.654v2.811" transform="translate(101.35 31.524)" fill="#c2bcae"/>
      <path id="path576" d="M460.241-316.711l-5.7-3.007V-321.8l5.7,3.007v2.078" transform="translate(101.563 31.683)" fill="#f68a2f"/>
      <path id="path578" d="M378.866-320.781a4.653,4.653,0,0,0,4.352.373c1.472-.778,2.32-2.656,2.32-5.155v-22.748c0-5-3.315-10.807-7.391-12.956l-43.654-23.018a4.661,4.661,0,0,0-4.354-.373c-1.477.778-2.322,2.656-2.322,5.155v22.75c0,4.993,3.317,10.8,7.393,12.952Zm2.723,2.074a7.449,7.449,0,0,1-3.441-.936l-43.654-23.02c-4.473-2.358-8.11-8.677-8.11-14.09V-379.5c0-2.981,1.1-5.273,3.037-6.291a6.131,6.131,0,0,1,5.79.373L378.866-362.4c4.473,2.356,8.108,8.679,8.108,14.091v22.748c0,2.981-1.1,5.275-3.037,6.291a4.981,4.981,0,0,1-2.349.565" transform="translate(33.411 5.929)" fill="#c2bcae"/>
      <path id="path580" d="M376.121-359.439a3.469,3.469,0,0,0-1.632.384c-1.477.778-2.324,2.656-2.324,5.155v22.75c0,4.993,3.315,10.8,7.391,12.954l43.658,23.018a4.663,4.663,0,0,0,4.352.373c1.473-.776,2.32-2.656,2.32-5.155v-22.748c0-5-3.315-10.807-7.389-12.956l-43.658-23.018A5.9,5.9,0,0,0,376.121-359.439ZM425.937-293.1a7.425,7.425,0,0,1-3.439-.938L378.839-317.06c-4.473-2.358-8.108-8.679-8.108-14.09V-353.9c0-2.981,1.107-5.275,3.037-6.291a6.125,6.125,0,0,1,5.788.373L423.214-336.8c4.471,2.358,8.106,8.679,8.106,14.091v22.748c0,2.982-1.1,5.275-3.037,6.291a4.984,4.984,0,0,1-2.347.565" transform="translate(56.994 16.143)" fill="#c2bcae"/>
      <path id="path582" d="M458.946-262.91l-23.994-20.14a9.854,9.854,0,0,1-4.6-8.03v-29.83c0-3.094,2.061-4.518,4.6-3.176l23.994,12.65a9.854,9.854,0,0,1,4.6,8.03v37.32c0,3.094-2.061,4.516-4.6,3.176" transform="translate(88.7 30.568)" fill="#232530"/>
      <path id="path584" d="M431.226-290.588v-30.285c0-2.192,1.46-3.2,3.262-2.249l23.994,12.65a6.98,6.98,0,0,1,3.262,5.689v37.776c0,2.192-1.46,3.2-3.262,2.251L434.487-284.9a6.98,6.98,0,0,1-3.262-5.689" transform="translate(89.165 31.011)" fill="#6c6aa8"/>
      <path id="path586" d="M442.348-250.308l-7.4-3.9c-2.541-1.339-4.6-12.424-4.6-15.518v-19c0-3.094,2.061-4.516,4.6-3.176l7.4,3.9a9.848,9.848,0,0,1,4.6,8.028v26.486c0,3.094-2.061,4.516-4.6,3.176" transform="translate(88.7 43.408)" fill="#232530"/>
      <path id="path588" d="M431.226-269.235v-19.45c0-2.192,1.46-3.2,3.262-2.249l7.4,3.9a6.98,6.98,0,0,1,3.262,5.689v26.941c0,2.192-1.46,3.2-3.262,2.249l-7.4-3.9c-1.8-.949-3.262-10.986-3.262-13.179" transform="translate(89.165 43.85)" fill="#6c6aa8"/>
      <path id="path590" d="M463.27-236.819a9.116,9.116,0,0,0,2.257,3.648,1.725,1.725,0,0,1,.557,1.46c-.131.382-.741.269-1.3-.33a14.425,14.425,0,0,1-2.992-4.844c-.27-.74-.045-1.252.39-1.141a1.924,1.924,0,0,1,1.089,1.207" transform="translate(105.357 65.092)" fill="#434450"/>
      <path id="path592" d="M470.378-235.769a9.114,9.114,0,0,0-2.253-3.65,1.727,1.727,0,0,1-.562-1.459c.133-.382.741-.27,1.3.328a14.471,14.471,0,0,1,2.994,4.846c.27.739.043,1.25-.392,1.141a1.935,1.935,0,0,1-1.089-1.207" transform="translate(108.472 63.872)" fill="#434450"/>
      <path id="path594" d="M468-232a2.22,2.22,0,0,0,2.349-1.125c.219-.328.68-.367,1.111,0a1.287,1.287,0,0,1,.339,1.543,3.431,3.431,0,0,1-3.115,1.494,1.534,1.534,0,0,1-1.287-1.089c-.116-.519.174-.839.6-.823" transform="translate(108.388 66.947)" fill="#434450"/>
      <path id="path596" d="M465.688-241.509a2.219,2.219,0,0,0-2.347,1.125c-.218.326-.682.366-1.113,0a1.287,1.287,0,0,1-.339-1.543A3.429,3.429,0,0,1,465-243.421a1.526,1.526,0,0,1,1.287,1.089c.116.519-.174.837-.6.823" transform="translate(105.398 62.942)" fill="#434450"/>
      <path id="path598" d="M470.156-244.149h-.719l.027-18.8,4.373-10.022.666.242-4.346,9.964v18.615" transform="translate(109.486 51.159)" fill="#bdb9ab"/>
      <path id="path600" d="M497.887-241.6,470.926-269.02l.533-.438,26.959,27.418-.531.438" transform="translate(110.277 52.56)" fill="#bdb9ab"/>
      <path id="path602" d="M276.281-285.027l-12.724-6.709,15.116-7.97L291.4-293l-15.116,7.97" transform="translate(0 40.494)" fill="#5b535a"/>
      <path id="path604" d="M526.2-165.627V-135.7L512.2-143.075a47.509,47.509,0,0,0-21.974-25.9c-13.21-6.963-15.022,1.143-22.452,13.23a26.152,26.152,0,0,0-1.456,3.374L355.06-211.038c.026-1.3.035-2.675.035-4.124,0-13.842-10.71-30.712-23.916-37.679s-23.92-1.388-23.92,12.456c0,1.462.025,2.856.082,4.185l-35.476-18.706V-370L488.642-255.7l12.781,62.584L526.2-165.627" transform="translate(4.417 12.454)" fill="#d7d1c6"/>
      <path id="path606" d="M280.218-300.921c0,1.367-1.058,1.917-2.363,1.229a4.692,4.692,0,0,1-2.361-3.719c0-1.367,1.058-1.917,2.361-1.229a4.689,4.689,0,0,1,2.363,3.719" transform="translate(6.348 38.408)" fill="#c2bcae"/>
      <path id="path608" d="M427.553-228.642,272.73-310.274v-4.1l1.987-2.078,152.836,83.709,1.985,2.022-1.985,2.078" transform="translate(4.878 33.815)" fill="#c2bcae"/>
      <path id="path610" d="M434.988-213.074l-3.56-1.876v-3.727l1.036-2.932,4.422,6.968-1.9,1.567" transform="translate(89.273 71.646)" fill="#a79e8d"/>
      <path id="path612" d="M440.25-191.909c0,10.74-8.308,15.065-18.555,9.662s-18.555-18.488-18.555-29.226,8.306-15.065,18.555-9.662,18.555,18.488,18.555,29.226" transform="translate(74.229 70.907)" fill="#232530"/>
      <path id="path614" d="M440.25-191.909c0,10.74-8.308,15.065-18.555,9.662s-18.555-18.488-18.555-29.226,8.306-15.065,18.555-9.662,18.555,18.488,18.555,29.226" transform="translate(74.229 70.907)" fill="#2d2f3b"/>
      <path id="path616" d="M439-192.389c0,10.329-7.99,14.491-17.846,9.292s-17.848-17.785-17.848-28.114,7.99-14.491,17.848-9.294S439-202.721,439-192.389" transform="translate(74.318 71.194)" fill="#232530"/>
      <path id="path618" d="M335.581-252.338c0,10.738-8.308,15.063-18.553,9.66s-18.555-18.488-18.555-29.227,8.306-15.063,18.555-9.66,18.553,18.488,18.553,29.227" transform="translate(18.568 46.802)" fill="#2d2f3b"/>
      <path id="path620" d="M333.873-252.82c0,10.329-7.99,14.491-17.848,9.294s-17.848-17.786-17.848-28.116,7.992-14.491,17.848-9.294,17.848,17.786,17.848,28.116" transform="translate(18.411 47.089)" fill="#232530"/>
      <path id="path622" d="M327.726-257.051c0,7.461-5.77,10.466-12.89,6.713s-12.892-12.846-12.892-20.306,5.77-10.466,12.892-6.713,12.89,12.845,12.89,20.306" transform="translate(20.414 48.764)" fill="#434450"/>
      <path id="path624" d="M326.32-258.262c0,6.759-5.229,9.483-11.678,6.08s-11.682-11.639-11.682-18.4,5.229-9.483,11.682-6.082,11.678,11.639,11.678,18.4" transform="translate(20.954 49.102)" fill="#b8b8ae"/>
      <path id="path626" d="M324.74-259.273c0,6.079-4.706,8.529-10.508,5.469s-10.506-10.469-10.506-16.548,4.7-8.531,10.506-5.472a16.077,16.077,0,0,1,1.56.946,21.626,21.626,0,0,1,8.821,13.832,12.862,12.862,0,0,1,.127,1.774" transform="translate(21.362 49.495)" fill="#a2a190"/>
      <path id="path628" d="M318.025-256.279c-5.492-2.895-9.946-9.91-9.946-15.666a6.664,6.664,0,0,1,1.959-5.178c-3.713-.261-6.311,2.249-6.311,6.769,0,6.079,4.7,13.491,10.506,16.548,4.228,2.231,7.869,1.533,9.538-1.36a8.605,8.605,0,0,1-5.745-1.113" transform="translate(21.362 49.495)" fill="#a9aa9b"/>
      <path id="path630" d="M317.967-257.843a6.3,6.3,0,0,1-2.894-.809c-3.56-1.876-6.446-6.422-6.446-10.152,0-2.641,1.446-4.165,3.552-4.165a6.27,6.27,0,0,1,2.894.81c3.56,1.876,6.444,6.422,6.444,10.152,0,2.639-1.444,4.165-3.55,4.165" transform="translate(23.968 51.159)" fill="#7c7966"/>
      <path id="path632" d="M321.547-261.691c-1.1,1.464-3.2,1.738-5.608.47-3.562-1.878-6.448-6.424-6.448-10.152,0-2.507,1.3-4.008,3.235-4.152a21.626,21.626,0,0,1,8.821,13.834" transform="translate(24.428 50.14)" fill="#8d8b75"/>
      <path id="path634" d="M312.265-275.171l-4.836,2.555,9.526,14.121,4.765-2.514-3.254-7.1-6.2-7.062" transform="translate(23.331 50.281)" fill="#8d8b75"/>
      <path id="path636" d="M319.268-262.774c0,3.73-2.886,5.232-6.444,3.355s-6.448-6.422-6.448-10.152,2.886-5.234,6.448-3.357,6.444,6.424,6.444,10.154" transform="translate(22.771 50.854)" fill="#a9aa9b"/>
      <path id="path638" d="M318.662-262.977c0,3.566-2.757,5-6.162,3.208s-6.164-6.14-6.164-9.706,2.759-5.006,6.164-3.21,6.162,6.14,6.162,9.708" transform="translate(22.75 50.964)" fill="#cccabc"/>
      <path id="path640" d="M432.4-196.62c0,7.461-5.772,10.466-12.891,6.713s-12.892-12.845-12.892-20.306,5.772-10.467,12.892-6.713S432.4-204.081,432.4-196.62" transform="translate(76.076 72.869)" fill="#434450"/>
      <path id="path642" d="M430.987-197.831c0,6.759-5.229,9.481-11.678,6.081s-11.68-11.639-11.68-18.4,5.229-9.481,11.68-6.081,11.678,11.639,11.678,18.4" transform="translate(76.616 73.207)" fill="#b8b8ae"/>
      <path id="path644" d="M429.02-199.092c0,5.916-4.575,8.3-10.218,5.321s-10.22-10.184-10.22-16.1,4.575-8.3,10.22-5.321S429.02-205,429.02-199.092" transform="translate(77.123 73.696)" fill="#a9aa9b"/>
      <path id="path646" d="M427.319-200.18c0,5.185-4.011,7.272-8.956,4.665s-8.958-8.925-8.958-14.108,4.011-7.272,8.958-4.665,8.956,8.925,8.956,14.108" transform="translate(77.561 74.118)" fill="#cccabc"/>
      <path id="path648" d="M421.978-202.845c0,3.1-2.4,4.348-5.353,2.788s-5.355-5.334-5.355-8.434,2.4-4.346,5.355-2.787,5.353,5.334,5.353,8.432" transform="translate(78.552 75.5)" fill="#bfbdae"/>
      <path id="path650" d="M412.47-207.49a9.1,9.1,0,0,0,2.255,3.648,1.736,1.736,0,0,1,.562,1.46c-.135.382-.743.27-1.3-.33a14.465,14.465,0,0,1-2.994-4.844c-.268-.739-.043-1.252.392-1.141a1.935,1.935,0,0,1,1.089,1.207" transform="translate(78.342 76.791)" fill="#434450"/>
      <path id="path652" d="M420.7-203.373c0,2.731-2.11,3.829-4.714,2.456a9.365,9.365,0,0,1-4.716-7.429c0-2.727,2.112-3.827,4.716-2.455a9.366,9.366,0,0,1,4.714,7.427" transform="translate(78.552 75.722)" fill="#d5d7d2"/>
      <path id="path654" d="M417.8-205.228c0,1.481-1.148,2.08-2.561,1.334a5.092,5.092,0,0,1-2.561-4.036c0-1.483,1.148-2.078,2.561-1.334a5.092,5.092,0,0,1,2.561,4.036" transform="translate(79.3 76.443)" fill="#a9aa9b"/>
      <path id="path656" d="M447.51-188.826l-13.527-1.363-6.26-3.3-1.454-13.649,8.17,4.3,13.071,4.094v9.913" transform="translate(86.529 77.419)" fill="#3b3237"/>
      <path id="path658" d="M487.2-259.3l-213.55-112.6-1.789,2.648,216.779,114.3L487.2-259.3" transform="translate(4.417 11.699)" fill="#f0ede7"/>
      <path id="path660" d="M427.9-234.053,273.078-315.685l1.454-.767L429.353-234.82l-1.454.767" transform="translate(5.063 33.815)" fill="#5b535a"/>
      <path id="path662" d="M374.15-257.33v4.1L375.6-254v-4.1l-1.454.767" transform="translate(58.812 57.092)" fill="#464044"/>
      <path id="path664" d="M376.462-204.267v-91.282L421.1-272.014v58.253l-14.679,25.288-29.956-15.794" transform="translate(60.042 42.153)" fill="#c2bcae"/>
      <path id="path666" d="M417.508-277.707l-10.059-5.3v52l14.9,7.858,4.209-6.265-9.054-48.288" transform="translate(76.521 47.154)" fill="#232530"/>
      <path id="path668" d="M408.324-232.312V-281.5l7.685,4.051,8.66,46.508-3.6,5.349-12.748-6.72" transform="translate(76.986 47.756)" fill="#473134"/>
      <path id="path670" d="M276.281-287.3l-12.724-6.709v2.082l12.724,6.709V-287.3" transform="translate(0 42.767)" fill="#3b3237"/>
      <path id="path672" d="M437.136-213.725l-5.327-2.811v-5.583l5.327,2.809v5.584" transform="translate(89.475 71.443)" fill="#434450"/>
      <path id="path674" d="M437.022-214.64l-5.851-5.3,1.43-1.664,4.422,2.333v4.635" transform="translate(89.136 71.646)" fill="#f68a2f"/>
      <path id="path676" d="M434.729-214.815l-3.558-1.876v-3.728l3.558,1.875v3.73" transform="translate(89.136 72.121)" fill="#e1622e"/>
      <path id="path678" d="M281.41-301.88c0,1.725-1.334,2.421-2.982,1.552a5.919,5.919,0,0,1-2.982-4.7c0-1.723,1.336-2.419,2.982-1.552a5.92,5.92,0,0,1,2.982,4.7" transform="translate(6.323 37.605)" fill="#434450"/>
      <path id="path680" d="M280.573-302.414c0,1.367-1.056,1.916-2.361,1.229a4.687,4.687,0,0,1-2.361-3.719c0-1.367,1.056-1.917,2.361-1.229a4.684,4.684,0,0,1,2.361,3.719" transform="translate(6.538 37.812)" fill="#dd3435"/>
      <path id="path682" d="M276.645-306.25a7.915,7.915,0,0,0-1.293,1.5c-.223.5,2.518,4,2.518,4a6.587,6.587,0,0,0,2.255-.341c.86-.375-3.48-5.163-3.48-5.163" transform="translate(6.266 37.884)" fill="#dd3435"/>
      <path id="path684" d="M280.049-294.721c0,1.173-.909,1.645-2.028,1.056A4.026,4.026,0,0,1,276-296.857c0-1.173.909-1.645,2.026-1.056a4.029,4.029,0,0,1,2.028,3.191" transform="translate(6.615 41.108)" fill="#a79e8d"/>
      <path id="path686" d="M333.993-263.576c0,1.173-.909,1.645-2.028,1.056a4.032,4.032,0,0,1-2.026-3.191c0-1.173.909-1.645,2.026-1.056a4.024,4.024,0,0,1,2.028,3.191" transform="translate(35.302 53.532)" fill="#a79e8d"/>
      <path id="path688" d="M373.642-240.684c0,1.171-.907,1.645-2.026,1.054a4.021,4.021,0,0,1-2.026-3.189c0-1.173.907-1.645,2.026-1.056a4.021,4.021,0,0,1,2.026,3.191" transform="translate(56.387 62.663)" fill="#a79e8d"/>
      <path id="path690" d="M278.893-302.273c0,1.074-.831,1.507-1.857.966a3.683,3.683,0,0,1-1.854-2.925c0-1.072.829-1.505,1.854-.966a3.688,3.688,0,0,1,1.857,2.925" transform="translate(6.182 38.211)" fill="#f14638"/>
      <path id="path692" d="M280.191-295.389c0,1.173-.907,1.645-2.026,1.054a4.021,4.021,0,0,1-2.026-3.19c0-1.173.907-1.645,2.026-1.056a4.021,4.021,0,0,1,2.026,3.191" transform="translate(6.691 40.842)" fill="#9195bb"/>
      <path id="path694" d="M334.135-264.245c0,1.173-.907,1.645-2.026,1.056a4.021,4.021,0,0,1-2.026-3.191c0-1.173.907-1.645,2.026-1.056a4.027,4.027,0,0,1,2.026,3.191" transform="translate(35.378 53.265)" fill="#9195bb"/>
      <path id="path696" d="M373.784-241.353c0,1.173-.907,1.645-2.026,1.056a4.019,4.019,0,0,1-2.024-3.191c0-1.173.9-1.645,2.024-1.056a4.027,4.027,0,0,1,2.026,3.191" transform="translate(56.464 62.396)" fill="#9195bb"/>
      <path id="path698" d="M279.9-295.264c0,1.173-.907,1.645-2.026,1.056a4.021,4.021,0,0,1-2.026-3.191c0-1.171.907-1.643,2.026-1.054a4.021,4.021,0,0,1,2.026,3.189" transform="translate(6.538 40.893)" fill="#f7ece4"/>
      <path id="path700" d="M279.491-295.527c0,.994-.77,1.4-1.72.9a3.415,3.415,0,0,1-1.72-2.708c0-.994.77-1.4,1.72-.9a3.415,3.415,0,0,1,1.72,2.708" transform="translate(6.645 40.995)" fill="#e1622e"/>
      <path id="path702" d="M333.847-264.118c0,1.173-.907,1.645-2.026,1.056a4.027,4.027,0,0,1-2.026-3.191c0-1.173.907-1.645,2.026-1.056a4.021,4.021,0,0,1,2.026,3.191" transform="translate(35.225 53.316)" fill="#f7ece4"/>
      <path id="path704" d="M333.435-264.384c0,1-.77,1.4-1.72.9a3.412,3.412,0,0,1-1.72-2.706c0-.994.77-1.4,1.72-.9a3.412,3.412,0,0,1,1.72,2.706" transform="translate(35.331 53.419)" fill="#e1622e"/>
      <path id="path706" d="M373.5-241.226c0,1.173-.909,1.645-2.028,1.056a4.027,4.027,0,0,1-2.026-3.191c0-1.173.907-1.645,2.026-1.056a4.024,4.024,0,0,1,2.028,3.191" transform="translate(56.31 62.447)" fill="#f7ece4"/>
      <path id="path708" d="M373.082-241.492c0,1-.77,1.4-1.72.9a3.407,3.407,0,0,1-1.716-2.706c0-.994.766-1.4,1.716-.9a3.412,3.412,0,0,1,1.72,2.706" transform="translate(56.418 62.55)" fill="#e1622e"/>
      <path id="path710" d="M282.781-360.005l-6.93-3.654v-2.811l6.93,3.654v2.811" transform="translate(6.538 13.863)" fill="#c2bcae"/>
      <path id="path712" d="M281.955-360.985l-5.7-3.007v-2.08l5.7,3.007v2.08" transform="translate(6.752 14.022)" fill="#e1622e"/>
      <path id="path714" d="M339.168-327.449l-6.928-3.654v-2.811l6.928,3.654v2.811" transform="translate(36.525 26.849)" fill="#c2bcae"/>
      <path id="path716" d="M338.343-328.429l-5.7-3.007v-2.08l5.7,3.007v2.08" transform="translate(36.738 27.008)" fill="#e1622e"/>
      <path id="path718" d="M410.269-286.4l-6.93-3.654v-2.811l6.93,3.654v2.811" transform="translate(74.335 43.223)" fill="#c2bcae"/>
      <path id="path720" d="M409.443-287.38l-5.7-3.007v-2.08l5.7,3.007v2.08" transform="translate(74.548 43.382)" fill="#e1622e"/>
      <path id="path722" d="M408.147-235.716l-24-12.652a9.848,9.848,0,0,1-4.6-8.028v-29.83c0-3.094,2.061-4.517,4.6-3.176l24,12.652a9.848,9.848,0,0,1,4.6,8.028v29.83c0,3.094-2.061,4.516-4.6,3.176" transform="translate(61.684 44.403)" fill="#232530"/>
      <path id="path724" d="M380.426-255.9v-30.285c0-2.192,1.46-3.2,3.26-2.251l24,12.651a6.983,6.983,0,0,1,3.26,5.689v30.285c0,2.192-1.46,3.2-3.262,2.251l-23.994-12.652a6.983,6.983,0,0,1-3.26-5.689" transform="translate(62.15 44.846)" fill="#473134"/>
      <path id="path726" d="M391.547-223.115l-7.4-3.9a9.848,9.848,0,0,1-4.6-8.028v-19c0-3.094,2.061-4.517,4.6-3.176l7.4,3.9a9.849,9.849,0,0,1,4.6,8.03v18.995c0,3.094-2.059,4.517-4.6,3.176" transform="translate(61.684 57.242)" fill="#232530"/>
      <path id="path728" d="M380.426-234.551V-254c0-2.192,1.46-3.2,3.26-2.251l7.4,3.9a6.977,6.977,0,0,1,3.262,5.689v19.45c0,2.192-1.46,3.2-3.262,2.251l-7.4-3.9a6.983,6.983,0,0,1-3.26-5.689" transform="translate(62.15 57.685)" fill="#473134"/>
      <path id="path730" d="M419.581-206.439a9.145,9.145,0,0,0-2.257-3.65,1.722,1.722,0,0,1-.56-1.459c.133-.382.741-.27,1.3.33a14.465,14.465,0,0,1,2.994,4.844c.268.739.045,1.25-.392,1.141a1.927,1.927,0,0,1-1.087-1.207" transform="translate(81.456 75.571)" fill="#434450"/>
      <path id="path732" d="M417.2-202.675a2.223,2.223,0,0,0,2.349-1.125c.219-.326.682-.366,1.113,0a1.3,1.3,0,0,1,.339,1.542,3.436,3.436,0,0,1-3.119,1.494,1.531,1.531,0,0,1-1.285-1.089c-.116-.519.172-.837.6-.823" transform="translate(81.373 78.647)" fill="#434450"/>
      <path id="path734" d="M414.888-212.18a2.223,2.223,0,0,0-2.349,1.125c-.219.326-.682.366-1.113,0a1.293,1.293,0,0,1-.339-1.543,3.436,3.436,0,0,1,3.119-1.494A1.536,1.536,0,0,1,415.493-213c.114.519-.174.837-.6.823" transform="translate(78.383 74.641)" fill="#434450"/>
      <path id="path736" d="M414.392-203.214a14.441,14.441,0,0,1-2.994-4.846,1.583,1.583,0,0,1-.1-.634c-.374-.022-.56.446-.31,1.132a14.465,14.465,0,0,0,2.994,4.844c.56.6,1.168.712,1.3.33l-.031-.295a1.588,1.588,0,0,1-.862-.532" transform="translate(78.343 76.798)" fill="#a9aa9b"/>
      <path id="path738" d="M421.075-205.732a1.945,1.945,0,0,1-1.089-1.207,9.13,9.13,0,0,0-2.255-3.65,1.934,1.934,0,0,1-.531-1.164c-.208-.032-.376.026-.435.2a1.715,1.715,0,0,0,.557,1.459,9.146,9.146,0,0,1,2.257,3.65,1.924,1.924,0,0,0,1.089,1.207c.286.073.468-.144.488-.505l-.082.009" transform="translate(81.457 75.574)" fill="#a9aa9b"/>
      <path id="path740" d="M418.294-201.675a1.529,1.529,0,0,1-1.287-1.087l.041-.261a.571.571,0,0,0-.449.757,1.531,1.531,0,0,0,1.285,1.089A3.435,3.435,0,0,0,421-202.671l.01-.032a3.505,3.505,0,0,1-2.718,1.028" transform="translate(81.374 79.06)" fill="#a9aa9b"/>
      <path id="path742" d="M411.837-211.847a1.3,1.3,0,0,1-.351-1.511,2.766,2.766,0,0,0-.4.464,1.294,1.294,0,0,0,.341,1.543c.431.366.893.326,1.111,0a3.772,3.772,0,0,1,.372-.463c-.229.287-.664.315-1.074-.034" transform="translate(78.384 74.937)" fill="#a9aa9b"/>
      <path id="path744" d="M414.579-213.064a2.2,2.2,0,0,0-2.277,1.037,2.278,2.278,0,0,1,1.869-.541c.339.013.527-.226.562-.561l-.153.065" transform="translate(79.101 75.029)" fill="#a9aa9b"/>
      <path id="path746" d="M419.355-214.82h-.717l.027-18.8,4.375-10.02.664.241-4.348,9.964v18.615" transform="translate(82.471 62.859)" fill="#bdb9ab"/>
      <path id="path748" d="M447.089-212.274,420.126-239.69l.533-.438,26.964,27.416-.533.438" transform="translate(83.262 64.259)" fill="#bdb9ab"/>
      <path id="path750" d="M515.716-253.233,437.9-212.2v29.931L515.716-223.3v-29.931" transform="translate(92.715 59.032)" fill="#ddd8ce"/>
      <path id="path752" d="M493.045-245.791l-44.156,23.283v29.541l44.156-23.283v-29.541" transform="translate(98.558 62)" fill="#e7e2db"/>
      <path id="path754" d="M490.032-242.317l-39.683,20.924v7.358l39.683-20.924v-7.358" transform="translate(99.334 63.386)" fill="#464044"/>
      <path id="path756" d="M490.032-232.973l-39.683,20.924v10.839l39.683-20.922v-10.84" transform="translate(99.334 67.113)" fill="#464044"/>
      <path id="path758" d="M487.726-236.175l-37.378,19.708v2.432l39.683-20.924v-7.358l-2.306,1.216v4.926" transform="translate(99.334 63.386)" fill="#c2bcae"/>
      <path id="path760" d="M487.726-231.757v8.408l-37.378,19.706v2.432l39.683-20.922v-10.84l-2.306,1.216" transform="translate(99.334 67.113)" fill="#c2bcae"/>
      <path id="path762" d="M446.5-204.366l77.815-41.028-24.774-27.489-77.817,41.028L446.5-204.366" transform="translate(84.114 51.193)" fill="#f0ede7"/>
      <path id="path764" d="M421.727-231.855,446.7-205.714l14.619-7.233,61.937-32.833-23.708-27.1,24.774,27.489L446.5-204.366l-24.776-27.489" transform="translate(84.114 51.193)" fill="#f9f7f2"/>
      <path id="path766" d="M454.322-217.738l44.156-23.283L482.827-257.75l-44.156,23.283,15.651,16.729" transform="translate(93.124 57.23)" fill="#f0ede7"/>
      <path id="path768" d="M413.383-276.594,491.2-317.622l12.781,62.584-77.817,41.028-12.781-62.584" transform="translate(79.676 33.348)" fill="#e7e2db"/>
      <path id="path770" d="M464.176-247.926l.282,1.21L425.64-226.247l-9.156-48.058,38.591-20.347.282,1.214,8.819,45.512" transform="translate(81.326 42.51)" fill="#464044"/>
      <path id="path772" d="M462.5-247.83l-14.111,7.438-22.348,11.786-2.028-10.757-6.335-33.594-.241-1.278,21.576-11.376,14.664-7.733,5.684,29.308,1.156,5.97L462.5-247.83" transform="translate(81.83 43.033)" fill="#a37173"/>
      <path id="path774" d="M486.243-260.13,452-242.077l-.282-1.212L442.9-288.8l-.282-1.212,34.471-18.174,9.152,48.058" transform="translate(95.224 37.111)" fill="#464044"/>
      <path id="path776" d="M484.283-261.251l-11.689,6.164-15.89,8.378-4.314,2.274-1.667-8.615-.3-1.567L444.571-284.8l-1-5.148,19.881-10.48,12.23-6.448,4.575,24.264,3.58,18.986.445,2.374" transform="translate(95.731 37.634)" fill="#a37173"/>
      <path id="path778" d="M475.469-261.894l-.921,1.373-5.11,2.693-10.314-5.435v-39.288l7.99-4.213,8.355,44.871" transform="translate(104.001 37.679)" fill="#cda5a4"/>
      <path id="path780" d="M413.883-275.352,491.7-316.381l-1.44-4.353-77.817,41.028,1.44,4.353" transform="translate(79.176 32.106)" fill="#f0ede7"/>
      <path id="path782" d="M564.4-288.628l-213.554-112.6-77.813,41.028,213.55,112.6L564.4-288.628" transform="translate(5.039 0)" fill="#fcfaf9"/>
      <path id="path784" d="M518.3-230.6l-78.168,41.215v9.913L518.3-220.683V-230.6" transform="translate(93.903 68.061)" fill="#464044"/>
      <path id="path786" d="M435.787-219.941l-2.294,1.2v3.73l2.294-.3v-4.635" transform="translate(90.371 72.312)" fill="#e06727"/>
      <path id="path788" d="M447.878-229.663v29.929l1.548.334v-29.541l-1.548-.722" transform="translate(98.02 68.433)" fill="#d7d1c6"/>
      <path id="path790" d="M427.9-230.172,273.078-311.8v-4.1L427.9-234.272v4.1" transform="translate(5.063 34.033)" fill="#3b3237"/>
      <path id="path792" d="M478.527-226.53l10.647-5.612-9.74,1.337-.907,1.339v2.936" transform="translate(114.319 67.445)" fill="#a79e8d"/>
      <path id="path794" d="M479.506-244.515l8.216-3.544c.8-.425,1.456-.084,1.456.759v15.649a2.9,2.9,0,0,1-1.456,2.3l-8.216,4.333c-.8.425-1.46.084-1.46-.761v-15.647c0-.845.656-2.662,1.46-3.087" transform="translate(114.063 61.023)" fill="#a79e8d"/>
      <path id="path796" d="M490.011-248.743l-.833-.446-.018-.009-.006,0a1.132,1.132,0,0,0-1.017.1l-8.214,4.333a2.9,2.9,0,0,0-1.46,2.3v15.649a.918.918,0,0,0,.378.824h0l.1.052.809.422.259-.586,8.129-4.284a2.9,2.9,0,0,0,1.458-2.3V-247.8l.417-.94" transform="translate(114.285 60.608)" fill="#2d2f3b"/>
      <path id="path798" d="M480.418-244.48l8.214-4.331c.807-.425,1.46-.086,1.46.759V-232.4a2.9,2.9,0,0,1-1.46,2.3l-8.214,4.333c-.807.423-1.458.084-1.458-.761v-15.649a2.9,2.9,0,0,1,1.458-2.3" transform="translate(114.55 60.723)" fill="#4e505c"/>
      <path id="path800" d="M480.525-243.97l7.389-3.9c.549-.287.991-.06.991.509v14.388a1.956,1.956,0,0,1-.991,1.554l-7.389,3.9c-.547.289-.991.062-.991-.509v-14.388a1.963,1.963,0,0,1,.991-1.554" transform="translate(114.855 61.123)" fill="#c6c3d9"/>
      <path id="path802" d="M490.266-246.646l-1.714-1.276-8.78,20.472,2.081.4,8.413-19.594" transform="translate(114.981 61.15)" fill="#c6c3d9"/>
      <path id="path804" d="M481.843-243.237l7.077-3.732c.523-.276.95-.058.95.489V-232.7a1.882,1.882,0,0,1-.95,1.488l-7.077,3.732c-.525.276-.95.058-.95-.489v-13.778a1.88,1.88,0,0,1,.95-1.488" transform="translate(115.578 61.483)" fill="#f0ede7"/>
      <path id="path806" d="M479.916-227.984a.689.689,0,0,1-.114-.41v-13.78a1.885,1.885,0,0,1,.948-1.488l7.077-3.73a.926.926,0,0,1,.429-.119h.037l-.748,1.744-5.12,2.7a1.88,1.88,0,0,0-.95,1.488v9.964l-1.558,3.631" transform="translate(114.997 61.314)" fill="#b6c2d4"/>
      <path id="path808" d="M480.281-227.788a.475.475,0,0,1-.4-.2l1.558-3.631v3.326l-.725.382a.926.926,0,0,1-.429.119m7.224-17.98.748-1.744c.288.019.482.237.482.606v.489l-1.229.649" transform="translate(115.037 61.314)" fill="#b6c2d4"/>
      <path id="path810" d="M480.893-228.6v-13.289a1.88,1.88,0,0,1,.95-1.488l5.12-2.7,1.229-.649v13.291a1.882,1.882,0,0,1-.948,1.488l-6.352,3.348" transform="translate(115.578 61.626)" fill="#dcebe0"/>
      <path id="path812" d="M479.98-226.151l10.647-5.614V-234.7l-10.647,5.614v2.936" transform="translate(115.092 66.424)" fill="#e06727"/>
      <path id="path814" d="M480.438-228.888l-1.319-.7,10.647-5.612,1.319.7-10.647,5.614" transform="translate(114.634 66.226)" fill="#f68a2f"/>
      <path id="path816" d="M480.438-230.489l-1.319-.7v2.938l1.319.7v-2.936" transform="translate(114.634 67.826)" fill="#e1622e"/>
      <path id="path818" d="M439.475-203.941l10.647-5.614-9.742,1.339-.9,1.339v2.936" transform="translate(93.552 76.454)" fill="#a79e8d"/>
      <path id="path820" d="M440.452-221.927l8.216-3.544c.8-.425,1.458-.086,1.458.759v15.647a2.9,2.9,0,0,1-1.458,2.3l-8.216,4.331c-.8.425-1.458.086-1.458-.759v-15.649c0-.843.654-2.66,1.458-3.085" transform="translate(93.296 70.033)" fill="#a79e8d"/>
      <path id="path822" d="M450.957-226.157l-.831-.446-.018-.009-.008,0v0a1.116,1.116,0,0,0-1.015.1l-8.217,4.331a2.894,2.894,0,0,0-1.458,2.3v15.649a.92.92,0,0,0,.376.824l0,0,.1.052.809.422.259-.586,8.129-4.286a2.9,2.9,0,0,0,1.458-2.3v-15.114l.415-.94" transform="translate(93.517 69.618)" fill="#2d2f3b"/>
      <path id="path824" d="M441.367-221.892l8.214-4.333c.807-.425,1.458-.084,1.458.759v15.649a2.891,2.891,0,0,1-1.458,2.3l-8.214,4.333c-.807.425-1.46.086-1.46-.759v-15.649a2.893,2.893,0,0,1,1.46-2.3" transform="translate(93.782 69.732)" fill="#4e505c"/>
      <path id="path826" d="M441.474-221.382l7.389-3.9c.547-.289.988-.062.988.509v14.388a1.961,1.961,0,0,1-.988,1.554l-7.389,3.895c-.547.289-.993.062-.993-.509v-14.386a1.96,1.96,0,0,1,.993-1.554" transform="translate(94.087 70.133)" fill="#c6c3d9"/>
      <path id="path828" d="M451.215-224.06l-1.716-1.276-8.78,20.474,2.083.4,8.413-19.594" transform="translate(94.213 70.16)" fill="#c6c3d9"/>
      <path id="path830" d="M442.789-220.651l7.077-3.73c.525-.276.95-.058.95.487v13.778a1.877,1.877,0,0,1-.95,1.488l-7.077,3.732c-.525.276-.948.058-.948-.487v-13.78a1.874,1.874,0,0,1,.948-1.488" transform="translate(94.81 70.493)" fill="#f0ede7"/>
      <path id="path832" d="M440.928-203.565l10.645-5.612v-2.936L440.928-206.5v2.936" transform="translate(94.325 75.434)" fill="#e06727"/>
      <path id="path834" d="M479.264-228.974V-229l.027.013-.027.015" transform="translate(114.711 68.697)" fill="#9d953d"/>
      <path id="path836" d="M479.98-227.444v-1.807l9.55-5.036v1.807l-9.55,5.036" transform="translate(115.092 66.589)" fill="#d6621c"/>
      <path id="path838" d="M480.351-228.93h0l-1.068-.565,10.618-5.6v1.128l-9.55,5.036" transform="translate(114.721 66.267)" fill="#f6821e"/>
      <path id="path840" d="M479.291-228.156l-.026-.013v-2.908l.029-.015,1.068.565v1.807l-1.07.563" transform="translate(114.711 67.864)" fill="#d65e1e"/>
      <path id="path842" d="M440.211-205.555v-2.934l.029-.015,1.07.563v1.807l-1.1.578" transform="translate(93.943 76.874)" fill="#9d953d"/>
      <path id="path844" d="M440.928-204.858v-1.807l9.548-5.034v1.807l-9.548,5.034" transform="translate(94.325 75.599)" fill="#d6621c"/>
      <path id="path846" d="M441.387-206.3l-1.321-.7,10.647-5.614,1.319.7L441.387-206.3" transform="translate(93.866 75.235)" fill="#f68a2f"/>
      <path id="path848" d="M441.387-207.9l-1.321-.7v2.936l1.321.7V-207.9" transform="translate(93.866 76.836)" fill="#e1622e"/>
      <path id="path850" d="M378.788-205.492v-88.829l-2.326-1.227v91.282l29.956,15.794,1.089-1.876-28.718-15.143" transform="translate(60.042 42.153)" fill="#8a7971"/>
      <path id="path852" d="M458.231-268.123l1.983,10.234-36.458,19.224-2.028-10.757,36.5-18.7" transform="translate(84.114 53.092)" fill="#89686a"/>
      <path id="path854" d="M481.906-272.906,450.014-256.09l-1.971-10.182,22.219-11.385,11.2,2.376.445,2.374" transform="translate(98.108 49.289)" fill="#89686a"/>
      <path id="path856" d="M378.788-231.171l-2.326,1.225,29.956,15.794,1.089-1.876-28.718-15.143" transform="translate(60.042 67.832)" fill="#f0ede7"/>
      <path id="path858" d="M407.676-208.292,371.35-227.443v2.08l36.326,19.154v-2.082" transform="translate(57.323 69.319)" fill="#3b3237"/>
      <path id="path860" d="M395.064-212.889l5.743-3.029v2.082l-5.743,3.029v-2.082" transform="translate(69.935 73.916)" fill="#464044"/>
      <path id="path862" d="M407.676-207.428l5.743-3.029-36.326-19.152-5.743,3.029,36.326,19.152" transform="translate(57.323 68.455)" fill="#5b535a"/>
      <path id="path864" d="M440.935-205.462a.607.607,0,0,1-.216-.513v-13.778a1.877,1.877,0,0,1,.95-1.488l7.077-3.732a.935.935,0,0,1,.427-.119.545.545,0,0,1,.17.026l-.837,1.953-5.118,2.7a1.874,1.874,0,0,0-.948,1.488v9.958l-1.5,3.507" transform="translate(94.213 70.257)" fill="#b6c2d4"/>
      <path id="path866" d="M441.165-205.374a.487.487,0,0,1-.3-.1l1.5-3.507v3.076l-.77.407a.942.942,0,0,1-.429.119m7.265-17.747.837-1.953a.551.551,0,0,1,.353.582v.744l-1.191.627" transform="translate(94.288 70.264)" fill="#b6c2d4"/>
      <path id="path868" d="M441.842-206.278v-13.034a1.874,1.874,0,0,1,.948-1.488l5.118-2.7,1.191-.627v13.034a1.877,1.877,0,0,1-.95,1.488l-6.307,3.326" transform="translate(94.81 70.642)" fill="#dcebe0"/>
      <path id="path870" d="M420.288-272.364,377.98-294.671h0l42.308,22.308" transform="translate(60.85 42.502)" fill="#c9c2b8"/>
      <path id="path872" d="M406.7-190.7h0l-1.93-1.018,12.669-22.6V-271.6L377.98-292.812v-1.86l42.308,22.308v58.253L406.7-190.7" transform="translate(60.85 42.502)" fill="#b6b0a3"/>
      <path id="path874" d="M455.11-223.066,434.278-246.2l22.38,23.859Z" transform="translate(90.788 61.836)" fill="#d7d1c6"/>
      <path id="path876" d="M487.726-237.926l2.306,1.216-39.683,20.924v-2.432l37.378-19.708" transform="translate(99.334 65.138)" fill="#f0ede7"/>
      <path id="path878" d="M487.726-226.094l2.306,1.218-39.683,20.922v-2.432l37.378-19.708" transform="translate(99.334 69.857)" fill="#f0ede7"/>
      <path id="path880" d="M442.71-293.342l1.475,7.608-6.133-5.152Z" transform="translate(92.795 43.033)" fill="#c2bfd7"/>
      <path id="path882" d="M455.173-299.147v22.433c0,2.193-1.456,3.2-3.258,2.249l-5.668-4.758-2.676-13.806,11.6-6.118" transform="translate(95.731 40.717)" fill="#c2bfd7"/>
      <path id="path884" d="M444.184-285.734l-6.133-5.152,4.659-2.456Z" transform="translate(92.795 43.033)" fill="#cda5a4"/>
      <path id="path886" d="M443.572-293.029l11.6-6.118v22.433c0,2.193-1.456,3.2-3.258,2.249l-5.668-4.758-2.676-13.806" transform="translate(95.731 40.717)" fill="#cda5a4"/>
      <path id="path888" d="M483.973-262.8l-207.6-109.615,1.454-.767L484.478-262.8h-.5" transform="translate(6.815 11.185)" fill="#e7e2db"/>
      <path id="path890" d="M484.3-263.112,276.7-372.729l1.452-.767,207.6,109.617-1.452.767" transform="translate(6.991 11.06)" fill="#fcfaf9"/>
      <path id="path892" d="M412.23-294.369v.435l1.452-.767v-.435l-1.452.767" transform="translate(79.063 42.317)" fill="#e7e2db"/>
      <path id="path894" d="M484.3-262.9,276.7-372.511v-.436L484.3-263.33v.435" transform="translate(6.991 11.279)" fill="#c2bcae"/>
      <path id="path896" d="M490.211-266.4l-207.6-109.615,1.454-.767L490.713-266.4h-.5" transform="translate(10.132 9.748)" fill="#e7e2db"/>
      <path id="path898" d="M490.538-266.714l-207.6-109.615,1.454-.767,207.6,109.615-1.454.767" transform="translate(10.307 9.624)" fill="#fcfaf9"/>
      <path id="path900" d="M418.466-297.97v.435l1.454-.767v-.435l-1.454.767" transform="translate(82.379 40.881)" fill="#e7e2db"/>
      <path id="path902" d="M490.538-266.5l-207.6-109.615v-.435l207.6,109.615v.435" transform="translate(10.307 9.843)" fill="#c2bcae"/>
      <path id="path904" d="M496.444-270l-207.6-109.615,1.454-.767L496.948-270h-.5" transform="translate(13.449 8.312)" fill="#e7e2db"/>
      <path id="path906" d="M496.773-270.315,289.175-379.93l1.454-.767,207.6,109.617-1.454.765" transform="translate(13.624 8.188)" fill="#fcfaf9"/>
      <path id="path908" d="M424.7-301.572v.436l1.454-.767v-.435l-1.454.765" transform="translate(85.696 39.445)" fill="#e7e2db"/>
      <path id="path910" d="M496.773-270.1l-207.6-109.615v-.436l207.6,109.615v.436" transform="translate(13.624 8.406)" fill="#c2bcae"/>
      <path id="path912" d="M502.681-273.6l-207.6-109.615,1.454-.767L503.186-273.6h-.5" transform="translate(16.766 6.876)" fill="#e7e2db"/>
      <path id="path914" d="M503.011-273.915l-207.6-109.617,1.454-.765,207.6,109.615-1.454.767" transform="translate(16.941 6.752)" fill="#fcfaf9"/>
      <path id="path916" d="M430.939-305.171v.435l1.454-.767v-.435l-1.454.767" transform="translate(89.012 38.008)" fill="#e7e2db"/>
      <path id="path918" d="M503.011-273.7l-207.6-109.615v-.437l207.6,109.617v.435" transform="translate(16.941 6.97)" fill="#c2bcae"/>
      <path id="path920" d="M508.919-277.2,301.319-386.82l1.454-.767L509.424-277.2h-.5" transform="translate(20.082 5.439)" fill="#e7e2db"/>
      <path id="path922" d="M509.249-277.516l-207.6-109.615,1.452-.767L510.7-278.283l-1.454.767" transform="translate(20.257 5.315)" fill="#fcfaf9"/>
      <path id="path924" d="M437.176-308.773v.436l1.454-.767v-.436l-1.454.767" transform="translate(92.329 36.572)" fill="#e7e2db"/>
      <path id="path926" d="M509.249-277.3l-207.6-109.617v-.435l207.6,109.615v.437" transform="translate(20.257 5.534)" fill="#c2bcae"/>
      <path id="path928" d="M515.157-280.806,307.557-390.42l1.452-.767L515.661-280.806h-.5" transform="translate(23.399 4.003)" fill="#e7e2db"/>
      <path id="path930" d="M515.487-281.116l-207.6-109.617,1.454-.767,207.6,109.617-1.454.767" transform="translate(23.573 3.879)" fill="#fcfaf9"/>
      <path id="path932" d="M443.414-312.373v.435l1.454-.767v-.435l-1.454.767" transform="translate(95.646 35.136)" fill="#e7e2db"/>
      <path id="path934" d="M515.487-280.9l-207.6-109.615v-.436l207.6,109.617v.435" transform="translate(23.573 4.097)" fill="#c2bcae"/>
      <path id="path936" d="M521.393-284.407,313.793-394.02l1.454-.768L521.9-284.407h-.5" transform="translate(26.715 2.567)" fill="#e7e2db"/>
      <path id="path938" d="M521.72-284.718l-207.6-109.615,1.454-.767,207.6,109.615-1.454.767" transform="translate(26.89 2.443)" fill="#fcfaf9"/>
      <path id="path940" d="M449.648-315.974v.435l1.454-.767v-.435l-1.454.767" transform="translate(98.962 33.699)" fill="#e7e2db"/>
      <path id="path942" d="M521.72-284.5l-207.6-109.613v-.436l207.6,109.615v.435" transform="translate(26.89 2.661)" fill="#c2bcae"/>
      <path id="path944" d="M527.63-288.006,320.03-397.621l1.454-.768L528.132-288.006h-.5" transform="translate(30.032 1.13)" fill="#e7e2db"/>
      <path id="path946" d="M527.957-288.319l-207.6-109.615,1.454-.767,207.6,109.615-1.454.767" transform="translate(30.207 1.006)" fill="#fcfaf9"/>
      <path id="path948" d="M455.886-319.575v.436l1.454-.767v-.436l-1.454.767" transform="translate(102.279 32.263)" fill="#e7e2db"/>
      <path id="path950" d="M527.957-288.1l-207.6-109.615v-.436l207.6,109.615v.436" transform="translate(30.207 1.225)" fill="#c2bcae"/>
      <path id="path952" d="M426.3-299.272l-3.425-1.791,2.708-1.47,2.661,3.26H426.3" transform="translate(84.723 39.367)" fill="#e7e2db"/>
      <path id="path954" d="M426.379-299.433l2.708-1.472v-1.225l-2.708,1.472v1.225" transform="translate(86.587 39.527)" fill="#e06727"/>
      <path id="path956" d="M427.567-300.148l-3.423-1.789,2.708-1.472,3.423,1.789-2.708,1.472" transform="translate(85.399 39.017)" fill="#f68a2f"/>
      <path id="path958" d="M427.567-300.568l-3.423-1.789v1.224l3.423,1.791v-1.225" transform="translate(85.399 39.437)" fill="#e1622e"/>
      <path id="path960" d="M435.135-304.531l-3.425-1.789,2.708-1.472,2.661,3.26h-1.944" transform="translate(89.422 37.269)" fill="#e7e2db"/>
      <path id="path962" d="M435.215-304.692l2.706-1.47v-1.225l-2.706,1.472v1.224" transform="translate(91.286 37.43)" fill="#e06727"/>
      <path id="path964" d="M436.4-305.406,432.98-307.2l2.706-1.47,3.423,1.789-2.706,1.472" transform="translate(90.098 36.92)" fill="#f68a2f"/>
      <path id="path966" d="M436.4-305.825l-3.423-1.791v1.225L436.4-304.6v-1.224" transform="translate(90.098 37.339)" fill="#e1622e"/>
      <path id="path968" d="M443.969-309.788l-3.425-1.789,2.708-1.472,2.661,3.26h-1.944" transform="translate(94.12 35.172)" fill="#e7e2db"/>
      <path id="path970" d="M444.05-309.949l2.706-1.472v-1.224l-2.706,1.47v1.225" transform="translate(95.985 35.333)" fill="#e06727"/>
      <path id="path972" d="M445.239-310.664l-3.425-1.789,2.71-1.472,3.421,1.791-2.706,1.47" transform="translate(94.795 34.823)" fill="#f68a2f"/>
      <path id="path974" d="M445.239-311.084l-3.425-1.789v1.225l3.425,1.789v-1.225" transform="translate(94.795 35.242)" fill="#e1622e"/>
      <path id="path976" d="M439.681-244.246l17.754-9.361-3.446-3.848-17.752,9.361,3.443,3.848" transform="translate(91.83 57.348)" fill="#c2bcae"/>
      <path id="path978" d="M455.865-253.652l17.752-9.36-3.443-3.848L452.422-257.5l3.443,3.846" transform="translate(100.437 53.596)" fill="#c2bcae"/>
      <path id="path980" d="M443.512-256.091a.842.842,0,0,0,1.278-.142,1.109,1.109,0,0,0-.116-1.438.84.84,0,0,0-1.276.142,1.112,1.112,0,0,0,.114,1.438" transform="translate(95.526 57.169)" fill="#3b3237"/>
      <path id="path982" d="M443.545-256.229a.736.736,0,0,0,1.117-.123.969.969,0,0,0-.1-1.255.728.728,0,0,0-1.046.041l-.069.082a.973.973,0,0,0,.1,1.255" transform="translate(95.566 57.206)" fill="#3b3237"/>
      <path id="path984" d="M443.832-257.809a4.688,4.688,0,0,1,.813.121c.2.076.116,1.347.116,1.347a3.45,3.45,0,0,1-.86.308c-.388.062-.07-1.776-.07-1.776" transform="translate(95.804 57.207)" fill="#3b3237"/>
      <path id="path986" d="M444.07-256.485a.577.577,0,0,0,.876-.1.759.759,0,0,0-.078-.985.578.578,0,0,0-.878.1.762.762,0,0,0,.08.987" transform="translate(95.876 57.239)" fill="#4c4243"/>
      <path id="path988" d="M441.1-250.322l-23.424-24.839-.241-1.278,21.576-11.376,20.348,21.575,1.156,5.97L441.1-250.322" transform="translate(81.83 45.238)" fill="#b58d8f"/>
      <path id="path990" d="M440.17-250.451l-7.287-7.726,19.415-9.947,1.983,10.234-14.111,7.438" transform="translate(90.046 53.092)" fill="#a18788"/>
      <path id="path992" d="M449.908-259.783l-1.667-8.615,1.667,8.615m0,0,4.313-2.274h0l-4.313,2.274" transform="translate(98.214 52.983)" fill="#b58d8f"/>
      <path id="path994" d="M449.908-259.783h0l-1.667-8.615,5.98,6.342-4.313,2.274" transform="translate(98.214 52.983)" fill="#a18788"/>
      <path id="path996" d="M461.641-264.268l-10.5-11.128V-297.9l8.28-4.365,3.942,4.178v32.935l-1.726.884m18.169-1.2-.447-.1-3.611-19.4.478.505,3.58,18.986" transform="translate(99.758 39.473)" fill="#b58d8f"/>
      <path id="path998" d="M459.124-266.344v-32.935l12.385,13.133,3.611,19.4-10.751-2.281-5.245,2.688" transform="translate(104.001 40.664)" fill="#d8b7b6"/>
      <path id="path1000" d="M464.923-266.742,458-274.085l1.726-.884,5.245-2.688,10.751,2.281.447.1.445,2.374-11.689,6.164" transform="translate(103.402 49.289)" fill="#a18788"/>
      <path id="path1002" d="M455.173-276.641l-10.6-11.241-1-5.148,11.6-6.116v22.505" transform="translate(95.731 40.718)" fill="#d8b7b6"/>
      <path id="path1004" d="M456.988-206.09l-4.953,2.611v-2.009l4.953-2.613v2.011" transform="translate(100.231 77.035)" fill="#3b3237"/>
      <path id="path1006" d="M456.4-206.329l-4.079,2.149v-1.485l4.079-2.151v1.487" transform="translate(100.382 77.148)" fill="#e1622e"/>
      <path id="path1008" d="M479.709-220.148,475.632-218v-1.487l4.077-2.151v1.487" transform="translate(112.78 71.636)" fill="#e1622e"/>
      <path id="path1010" d="M438.719-256.538l-1.121.968,9.428-.875-.1-1.216-8.2,1.123" transform="translate(92.553 57.266)" fill="#3b3237"/>
      <path id="path1012" d="M453.582-259.141,426.861-246.52l-.284-.768L452.52-260.1l1.062.961" transform="translate(86.693 56.292)" fill="#4c4243"/>
      <path id="path1014" d="M373.134-260a3.9,3.9,0,0,0,3.525.373c1.191-.629,1.9-2.311,1.9-4.5v-22.748c0-4.672-3.2-10.3-6.977-12.3L327.93-322.195a3.9,3.9,0,0,0-3.525-.373c-1.191.63-1.9,2.311-1.9,4.5v22.748c0,4.674,3.2,10.305,6.979,12.3Zm2.31,3.49a8.335,8.335,0,0,1-3.858-1.039l-43.656-23.02c-4.779-2.518-8.523-9-8.523-14.746v-22.748c0-3.26,1.258-5.793,3.45-6.95a6.994,6.994,0,0,1,6.623.373l43.654,23.018c4.779,2.52,8.523,9,8.523,14.748v22.748c0,3.26-1.258,5.791-3.45,6.948a5.847,5.847,0,0,1-2.763.668" transform="translate(29.701 30.131)" fill="#e4dfd9"/>
      <path id="path1016" d="M325.614-323.786a2.589,2.589,0,0,0-1.225.289c-1.191.629-1.906,2.309-1.906,4.5v22.748c0,4.672,3.2,10.3,6.979,12.3l43.658,23.018a3.881,3.881,0,0,0,3.519.373c1.193-.63,1.908-2.311,1.908-4.5v-22.75c0-4.67-3.2-10.3-6.977-12.3l-43.658-23.02A5.13,5.13,0,0,0,325.614-323.786Zm49.812,66.343a8.272,8.272,0,0,1-3.856-1.041L327.912-281.5c-4.781-2.52-8.525-9-8.525-14.748V-319c0-3.258,1.258-5.791,3.456-6.95a6.991,6.991,0,0,1,6.619.373l43.658,23.02c4.779,2.522,8.523,9,8.523,14.746v22.75c0,3.258-1.26,5.791-3.452,6.948a5.89,5.89,0,0,1-2.765.668" transform="translate(29.69 29.76)" fill="#d1cbc0"/>
      <path id="path1018" d="M328.79-285.608a3.875,3.875,0,0,0,3.519.375c1.195-.63,1.908-2.311,1.908-4.5v-22.748c0-4.672-3.2-10.3-6.979-12.3L283.582-347.8a3.889,3.889,0,0,0-3.521-.375c-1.195.629-1.906,2.311-1.906,4.5v22.75c0,4.672,3.2,10.3,6.979,12.3Zm2.308,3.492a8.32,8.32,0,0,1-3.86-1.043l-43.656-23.018c-4.779-2.518-8.523-9-8.523-14.746v-22.75c0-3.259,1.258-5.791,3.454-6.948a6.99,6.99,0,0,1,6.621.373l43.656,23.02c4.779,2.518,8.523,9,8.523,14.746v22.748c0,3.26-1.26,5.791-3.454,6.95a5.873,5.873,0,0,1-2.761.668" transform="translate(6.117 19.918)" fill="#e4dfd9"/>
      <path id="path1020" d="M281.266-349.39a2.585,2.585,0,0,0-1.221.289c-1.193.629-1.908,2.311-1.908,4.5v22.748c0,4.672,3.2,10.3,6.977,12.3l43.658,23.016a3.882,3.882,0,0,0,3.523.375c1.191-.629,1.906-2.311,1.906-4.5v-22.748c0-4.672-3.2-10.3-6.979-12.3l-43.658-23.018A5.122,5.122,0,0,0,281.266-349.39Zm49.814,66.343a8.332,8.332,0,0,1-3.858-1.041l-43.658-23.018c-4.779-2.522-8.523-9-8.523-14.748V-344.6c0-3.26,1.26-5.791,3.452-6.95a7,7,0,0,1,6.621.375l43.658,23.018c4.781,2.52,8.525,9,8.525,14.748v22.748c0,3.258-1.258,5.79-3.456,6.948a5.867,5.867,0,0,1-2.761.668" transform="translate(6.107 19.548)" fill="#d1cbc0"/>
      <path id="path1022" d="M426.684-237.375,271.863-319.006v-4.1l154.821,81.632v4.1" transform="translate(4.417 31.16)" fill="#f3ab31"/>
      <path id="path1024" d="M287.039-336.917v8.287a2.233,2.233,0,0,0,3.329,1.766l7.908-4.116a1.95,1.95,0,0,0,.01-3.527l-7.908-4.171a2.233,2.233,0,0,0-3.339,1.761" transform="translate(12.488 24.839)" fill="#e4363b"/>
      <path id="path1026" d="M306.637-313.189v-8.287a2.234,2.234,0,0,0-3.331-1.766l-7.906,4.116a1.95,1.95,0,0,0-.01,3.527l7.906,4.171a2.235,2.235,0,0,0,3.341-1.761" transform="translate(16.337 30.998)" fill="#e4363b"/>
      <path id="path1028" d="M288.152-319.075l6.274,3.307c1.973,1.041,4.181-.979,3.039-2.781l-6.272-9.88c-1.142-1.8-4.154-1.058-4.154,1.02v6.573a2.011,2.011,0,0,0,1.113,1.761" transform="translate(12.488 28.631)" fill="#f3ab31"/>
      <path id="path1030" d="M304.959-330.573l-6.27-3.309c-1.975-1.041-4.185.981-3.041,2.783l6.274,9.88c1.14,1.8,4.152,1.057,4.152-1.02v-6.573a2.009,2.009,0,0,0-1.115-1.761" transform="translate(16.899 26.748)" fill="#f3ab31"/>
      <path id="path1032" d="M313.517-318.709a3.919,3.919,0,0,0-1.991-3.456l-1.013-.535v4.775l1.162.61C312.8-316.723,313.517-317.269,313.517-318.709Zm3.162,1.639c0,2.981-2.038,3.835-5.2,2.167l-4.058-2.141v-9.809l4.177,2.2a8.981,8.981,0,0,1,5.086,7.58" transform="translate(23.324 29.666)" fill="#3b3237"/>
      <path id="path1034" d="M321.951-318.858v2.464l-4.822-2.542v1.2l4.379,2.307v2.464l-4.379-2.309v1.218l4.938,2.6v2.462l-8.035-4.238v-9.809l7.918,4.174" transform="translate(26.843 31.189)" fill="#3b3237"/>
      <path id="path1036" d="M323.146-317.925v7.11l3.9,2.054v2.7l-7-3.687v-9.809l3.1,1.634" transform="translate(30.041 32.575)" fill="#3b3237"/>
      <path id="path1038" d="M328.237-314.985v9.809l-3.1-1.634v-9.811l3.1,1.636" transform="translate(32.749 33.747)" fill="#3b3237"/>
      <path id="path1040" d="M330.865-313.48l1.936,7.457,1.924-5.422,3.162,1.667-3.578,7.923-3.2-1.69-3.552-11.682,3.313,1.746" transform="translate(34.032 34.303)" fill="#3b3237"/>
      <path id="path1042" d="M342.61-306.93v2.464l-4.818-2.54v1.2l4.377,2.309v2.462l-4.377-2.307v1.216l4.938,2.6v2.464l-8.037-4.238V-311.1l7.916,4.174" transform="translate(37.83 35.947)" fill="#3b3237"/>
      <path id="path1044" d="M343.807-301.2l1.43.752c.664.353,1.054.123,1.054-.632a1.893,1.893,0,0,0-1.054-1.7l-1.43-.754Zm2.283,6.213-1.123-3.139-1.16-.612v2.548l-3.1-1.634v-9.811l4.528,2.387c2.533,1.337,3.989,3.378,3.989,5.616,0,1.429-.521,2.218-1.481,2.326l1.842,4.161-3.5-1.843" transform="translate(41.029 37.333)" fill="#3b3237"/>
      <path id="path1046" d="M352.978-294.114v3.05l-3.094-1.632v-2.981l-3.421-8.63,3.086,1.625,1.881,4.771,1.814-2.822,3.086,1.626-3.352,4.993" transform="translate(44.089 38.659)" fill="#3b3237"/>
      <path id="path1048" d="M310.144-313.5c-.249-.131-.411-.138-.411.071,0,.88,3.464,2.16,3.464,4.7,0,1.557-1.307,1.557-2.814.763a10.828,10.828,0,0,1-3.352-2.885l.817-1.308a9.7,9.7,0,0,0,2.553,2.434c.327.172.535.173.535-.076,0-.908-3.468-2.138-3.468-4.6,0-1.4,1.129-1.681,2.87-.765a10.5,10.5,0,0,1,2.91,2.363l-.8,1.337a11.758,11.758,0,0,0-2.3-2.033" transform="translate(23.119 34.115)" fill="#3b3237"/>
      <path id="path1050" d="M317.09-310.972v1.759l-3.45-1.819v.86l3.135,1.653v1.757l-3.135-1.653v.869l3.537,1.865v1.757l-5.753-3.031v-7l5.666,2.984" transform="translate(25.456 34.81)" fill="#3b3237"/>
      <path id="path1052" d="M317.938-306.881l1.021.539c.48.252.756.086.756-.453a1.349,1.349,0,0,0-.756-1.216l-1.021-.539Zm1.636,4.435-.807-2.24-.829-.438v1.819l-2.216-1.168v-7l3.237,1.707a4.7,4.7,0,0,1,2.859,4.014c0,1.018-.374,1.582-1.062,1.658l1.317,2.973-2.5-1.321" transform="translate(27.741 35.799)" fill="#3b3237"/>
      <path id="path1054" d="M322.23-307.838l1.387,5.327,1.372-3.872,2.267,1.2-2.561,5.652-2.294-1.209-2.539-8.341,2.367,1.248" transform="translate(29.943 36.753)" fill="#3b3237"/>
      <path id="path1056" d="M327.177-304.974v7l-2.214-1.166v-7l2.214,1.168" transform="translate(32.655 37.927)" fill="#3b3237"/>
      <path id="path1058" d="M330.471-301.665c-.807-.422-1.385-.06-1.385.869a2.764,2.764,0,0,0,1.385,2.348,1.6,1.6,0,0,0,1.517,0l1.279,2.1a3.034,3.034,0,0,1-2.91-.138,6.674,6.674,0,0,1-3.546-5.484c0-2.059,1.528-2.751,3.629-1.643a7.954,7.954,0,0,1,2.827,2.77l-1.279.914a4.285,4.285,0,0,0-1.517-1.742" transform="translate(33.638 38.729)" fill="#3b3237"/>
      <path id="path1060" d="M336.973-299.491v1.759l-3.448-1.819v.858l3.133,1.654v1.757l-3.133-1.653v.869l3.535,1.865v1.757l-5.747-3.031v-7l5.659,2.984" transform="translate(36.033 39.39)" fill="#3b3237"/>
      <path id="path1062" d="M466.665-269.5a.841.841,0,0,0,1.279-.142,1.112,1.112,0,0,0-.114-1.438.839.839,0,0,0-1.276.142,1.109,1.109,0,0,0,.112,1.438" transform="translate(107.839 51.819)" fill="#3b3237"/>
      <path id="path1064" d="M466.7-269.641a.737.737,0,0,0,1.117-.123.969.969,0,0,0-.1-1.255.726.726,0,0,0-1.044.039l-.071.084a.973.973,0,0,0,.1,1.255" transform="translate(107.879 51.856)" fill="#3b3237"/>
      <path id="path1066" d="M466.986-271.221a4.681,4.681,0,0,1,.815.119c.2.078.114,1.349.114,1.349a3.452,3.452,0,0,1-.86.308c-.388.062-.07-1.776-.07-1.776" transform="translate(108.116 51.857)" fill="#3b3237"/>
      <path id="path1068" d="M467.225-269.9a.573.573,0,0,0,.874-.1.76.76,0,0,0-.078-.987.58.58,0,0,0-.878.1.763.763,0,0,0,.082.987" transform="translate(108.189 51.889)" fill="#4c4243"/>
      <path id="path1070" d="M461.871-269.952l-1.119.968,9.426-.873-.1-1.216-8.2,1.121" transform="translate(104.867 51.916)" fill="#3b3237"/>
      <path id="path1072" d="M476.737-272.553l-26.721,12.622-.286-.77,25.942-12.812,1.064.961" transform="translate(99.006 50.942)" fill="#4c4243"/>
      <path id="path1074" d="M485.164-257.75l14.48,16.5-42.761,22.582L434.278-241.6l22.38,23.859,44.156-23.283L485.164-257.75" transform="translate(90.788 57.23)" fill="#f9f7f2"/>
      <path id="path1076" d="M459.527-196.543l12.6-6.642a4.789,4.789,0,0,0,2.234-3.9v-6.565c0-1.5-1-2.2-2.234-1.544l-12.6,6.644a4.786,4.786,0,0,0-2.236,3.9v6.564c0,1.505,1,2.2,2.236,1.544" transform="translate(103.026 74.107)" fill="#f9f7f2"/>
      <path id="path1078" d="M474.814-213.461v6.573a4.8,4.8,0,0,1-2.255,3.894l-12.606,6.633c-1.236.649-2.224-.03-2.224-1.524v-6.575a4.772,4.772,0,0,1,2.224-3.895l12.606-6.659c1.236-.649,2.255.056,2.255,1.552" transform="translate(103.259 74.181)" fill="#e7e2db"/>
      <path id="path1080" d="M457.73-203.727v-.733a4.772,4.772,0,0,1,2.224-3.895l12.606-6.659a1.908,1.908,0,0,1,.882-.241c.8,0,1.372.675,1.372,1.792v.733l-17.084,9" transform="translate(103.259 74.181)" fill="#ee6874"/>
      <path id="path1082" d="M266.837-310.746c.562.256,1.2.543,1.859.836,0-.666.006-1.257.012-1.751A14.967,14.967,0,0,0,266.837-310.746Zm1.889,24.346c0-.172-.051-13.3-.039-21.164-1.585-.7-3.249-1.44-4.191-1.9l-.874-.425.245-1.069c.462-1.2,4.616-3.257,6-3.038a1.3,1.3,0,0,1,1.17,1.287c-.014.72-.027,2.078-.033,3.814,1.56.679,2.812,1.214,2.843,1.224a3.138,3.138,0,0,0,3.2.089l1.589-.927,1.25,1.783-1.589.927a5.548,5.548,0,0,1-5.578-.028c-.037-.011-.731-.306-1.718-.731-.012,7.906.035,19.985.035,20.151l-2.314.008" transform="translate(0.035 34.787)" fill="#797379"/>
      <path id="path1084" d="M268.93-294.533a1.967,1.967,0,0,0-1.64,0c-.451.239-.449.625.006.863a1.967,1.967,0,0,0,1.64,0c.449-.237.445-.623-.006-.864" transform="translate(1.806 42.486)" fill="#797379"/>
      <path id="path1086" d="M273.3-309.587a1.633,1.633,0,0,0,.843,1.283c.458.229.817.03.807-.45a1.633,1.633,0,0,0-.843-1.283c-.455-.229-.817-.028-.807.449" transform="translate(5.179 36.336)" fill="#797379"/>
    </g>
  </g>
</svg>
